{
  "asset": {
    "version": "2.0",
    "generator": "THREE.GLTFExporter"
  },
  "scenes": [
    {
      "name": "AuxScene",
      "nodes": [
        15
      ]
    }
  ],
  "scene": 0,
  "nodes": [
    {
      "name": "Truck_with_trailer_wheel_front_left_tires_0",
      "extras": {
        "name": "Truck with trailer wheel front left_tires_0"
      },
      "mesh": 0
    },
    {
      "name": "Truck_with_trailer_wheel_front_left_wheels_0",
      "extras": {
        "name": "Truck with trailer wheel front left_wheels_0"
      },
      "mesh": 1
    },
    {
      "matrix": [
        100,
        0,
        0,
        0,
        0,
        -0.000016292067894774224,
        -99.99999999999866,
        0,
        0,
        99.99999999999866,
        -0.000016292067894774224,
        0,
        0,
        0,
        0,
        1
      ],
      "name": "Truck_with_trailer_wheel_front_left",
      "extras": {
        "name": "Truck with trailer wheel front left"
      },
      "children": [
        0,
        1
      ]
    },
    {
      "name": "Truck_with_trailer_wheel_rear_left_2_tires_0",
      "extras": {
        "name": "Truck with trailer wheel rear left 2_tires_0"
      },
      "mesh": 2
    },
    {
      "name": "Truck_with_trailer_wheel_rear_left_2_wheels_0",
      "extras": {
        "name": "Truck with trailer wheel rear left 2_wheels_0"
      },
      "mesh": 3
    },
    {
      "matrix": [
        100,
        0,
        0,
        0,
        0,
        -0.000016292067894774224,
        -99.99999999999866,
        0,
        0,
        99.99999999999866,
        -0.000016292067894774224,
        0,
        0,
        0,
        -395.273193359375,
        1
      ],
      "name": "Truck_with_trailer_wheel_rear_left_2",
      "extras": {
        "name": "Truck with trailer wheel rear left 2"
      },
      "children": [
        3,
        4
      ]
    },
    {
      "name": "Truck_with_trailer_wheel_rear_right_tires_0",
      "extras": {
        "name": "Truck with trailer wheel rear right_tires_0"
      },
      "mesh": 4
    },
    {
      "name": "Truck_with_trailer_wheel_rear_right_wheels_0",
      "extras": {
        "name": "Truck with trailer wheel rear right_wheels_0"
      },
      "mesh": 5
    },
    {
      "matrix": [
        100,
        0,
        0,
        0,
        0,
        -0.000016292067894774224,
        -99.99999999999866,
        0,
        0,
        99.99999999999866,
        -0.000016292067894774224,
        0,
        -257.6767578125,
        0,
        -281.27325439453125,
        1
      ],
      "name": "Truck_with_trailer_wheel_rear_right",
      "extras": {
        "name": "Truck with trailer wheel rear right"
      },
      "children": [
        6,
        7
      ]
    },
    {
      "name": "Truck_with_trailer_wheel_rear_left_tires_0",
      "extras": {
        "name": "Truck with trailer wheel rear left_tires_0"
      },
      "mesh": 6
    },
    {
      "name": "Truck_with_trailer_wheel_rear_left_wheels_0",
      "extras": {
        "name": "Truck with trailer wheel rear left_wheels_0"
      },
      "mesh": 7
    },
    {
      "matrix": [
        100,
        0,
        0,
        0,
        0,
        -0.000016292067894774224,
        -99.99999999999866,
        0,
        0,
        99.99999999999866,
        -0.000016292067894774224,
        0,
        0,
        0,
        -281.27325439453125,
        1
      ],
      "name": "Truck_with_trailer_wheel_rear_left",
      "extras": {
        "name": "Truck with trailer wheel rear left"
      },
      "children": [
        9,
        10
      ]
    },
    {
      "name": "Truck_with_trailer_wheel_rear_right_3_tires_0",
      "extras": {
        "name": "Truck with trailer wheel rear right 3_tires_0"
      },
      "mesh": 8
    },
    {
      "name": "Truck_with_trailer_wheel_rear_right_3_wheels_0",
      "extras": {
        "name": "Truck with trailer wheel rear right 3_wheels_0"
      },
      "mesh": 9
    },
    {
      "matrix": [
        100,
        0,
        0,
        0,
        0,
        -0.000016292067894774224,
        -99.99999999999866,
        0,
        0,
        99.99999999999866,
        -0.000016292067894774224,
        0,
        -257.6767578125,
        0,
        -967.2733154296875,
        1
      ],
      "name": "Truck_with_trailer_wheel_rear_right_3",
      "extras": {
        "name": "Truck with trailer wheel rear right 3"
      },
      "children": [
        12,
        13
      ]
    },
    {
      "name": "Truck_with_trailer_wheel_front_left",
      "children": [
        2,
        5,
        8,
        11,
        14
      ]
    }
  ],
  "bufferViews": [
    {
      "buffer": 0,
      "byteOffset": 0,
      "byteLength": 1416,
      "target": 34962,
      "byteStride": 12
    },
    {
      "buffer": 0,
      "byteOffset": 1416,
      "byteLength": 1416,
      "target": 34962,
      "byteStride": 12
    },
    {
      "buffer": 0,
      "byteOffset": 2832,
      "byteLength": 944,
      "target": 34962,
      "byteStride": 8
    },
    {
      "buffer": 0,
      "byteOffset": 3776,
      "byteLength": 720,
      "target": 34963
    },
    {
      "buffer": 0,
      "byteOffset": 4496,
      "byteLength": 2004,
      "target": 34962,
      "byteStride": 12
    },
    {
      "buffer": 0,
      "byteOffset": 6500,
      "byteLength": 2004,
      "target": 34962,
      "byteStride": 12
    },
    {
      "buffer": 0,
      "byteOffset": 8504,
      "byteLength": 1336,
      "target": 34962,
      "byteStride": 8
    },
    {
      "buffer": 0,
      "byteOffset": 9840,
      "byteLength": 1104,
      "target": 34963
    },
    {
      "buffer": 0,
      "byteOffset": 10944,
      "byteLength": 1392,
      "target": 34962,
      "byteStride": 12
    },
    {
      "buffer": 0,
      "byteOffset": 12336,
      "byteLength": 1392,
      "target": 34962,
      "byteStride": 12
    },
    {
      "buffer": 0,
      "byteOffset": 13728,
      "byteLength": 928,
      "target": 34962,
      "byteStride": 8
    },
    {
      "buffer": 0,
      "byteOffset": 14656,
      "byteLength": 720,
      "target": 34963
    },
    {
      "buffer": 0,
      "byteOffset": 15376,
      "byteLength": 2052,
      "target": 34962,
      "byteStride": 12
    },
    {
      "buffer": 0,
      "byteOffset": 17428,
      "byteLength": 2052,
      "target": 34962,
      "byteStride": 12
    },
    {
      "buffer": 0,
      "byteOffset": 19480,
      "byteLength": 1368,
      "target": 34962,
      "byteStride": 8
    },
    {
      "buffer": 0,
      "byteOffset": 20848,
      "byteLength": 1104,
      "target": 34963
    },
    {
      "buffer": 0,
      "byteOffset": 21952,
      "byteLength": 1440,
      "target": 34962,
      "byteStride": 12
    },
    {
      "buffer": 0,
      "byteOffset": 23392,
      "byteLength": 1440,
      "target": 34962,
      "byteStride": 12
    },
    {
      "buffer": 0,
      "byteOffset": 24832,
      "byteLength": 960,
      "target": 34962,
      "byteStride": 8
    },
    {
      "buffer": 0,
      "byteOffset": 25792,
      "byteLength": 720,
      "target": 34963
    },
    {
      "buffer": 0,
      "byteOffset": 26512,
      "byteLength": 1980,
      "target": 34962,
      "byteStride": 12
    },
    {
      "buffer": 0,
      "byteOffset": 28492,
      "byteLength": 1980,
      "target": 34962,
      "byteStride": 12
    },
    {
      "buffer": 0,
      "byteOffset": 30472,
      "byteLength": 1320,
      "target": 34962,
      "byteStride": 8
    },
    {
      "buffer": 0,
      "byteOffset": 31792,
      "byteLength": 1104,
      "target": 34963
    },
    {
      "buffer": 0,
      "byteOffset": 32896,
      "byteLength": 1392,
      "target": 34962,
      "byteStride": 12
    },
    {
      "buffer": 0,
      "byteOffset": 34288,
      "byteLength": 1392,
      "target": 34962,
      "byteStride": 12
    },
    {
      "buffer": 0,
      "byteOffset": 35680,
      "byteLength": 928,
      "target": 34962,
      "byteStride": 8
    },
    {
      "buffer": 0,
      "byteOffset": 36608,
      "byteLength": 720,
      "target": 34963
    },
    {
      "buffer": 0,
      "byteOffset": 37328,
      "byteLength": 2052,
      "target": 34962,
      "byteStride": 12
    },
    {
      "buffer": 0,
      "byteOffset": 39380,
      "byteLength": 2052,
      "target": 34962,
      "byteStride": 12
    },
    {
      "buffer": 0,
      "byteOffset": 41432,
      "byteLength": 1368,
      "target": 34962,
      "byteStride": 8
    },
    {
      "buffer": 0,
      "byteOffset": 42800,
      "byteLength": 1104,
      "target": 34963
    },
    {
      "buffer": 0,
      "byteOffset": 43904,
      "byteLength": 1440,
      "target": 34962,
      "byteStride": 12
    },
    {
      "buffer": 0,
      "byteOffset": 45344,
      "byteLength": 1440,
      "target": 34962,
      "byteStride": 12
    },
    {
      "buffer": 0,
      "byteOffset": 46784,
      "byteLength": 960,
      "target": 34962,
      "byteStride": 8
    },
    {
      "buffer": 0,
      "byteOffset": 47744,
      "byteLength": 720,
      "target": 34963
    },
    {
      "buffer": 0,
      "byteOffset": 48464,
      "byteLength": 1980,
      "target": 34962,
      "byteStride": 12
    },
    {
      "buffer": 0,
      "byteOffset": 50444,
      "byteLength": 1980,
      "target": 34962,
      "byteStride": 12
    },
    {
      "buffer": 0,
      "byteOffset": 52424,
      "byteLength": 1320,
      "target": 34962,
      "byteStride": 8
    },
    {
      "buffer": 0,
      "byteOffset": 53744,
      "byteLength": 1104,
      "target": 34963
    }
  ],
  "buffers": [
    {
      "byteLength": 54848,
      "uri": "data:application/octet-stream;base64,"
    }
  ],
  "accessors": [
    {
      "bufferView": 0,
      "componentType": 5126,
      "count": 118,
      "max": [
        1,
        1,
        0.9510565400123596
      ],
      "min": [
        -1,
        -1,
        -0.9510564804077148
      ],
      "type": "VEC3"
    },
    {
      "bufferView": 1,
      "componentType": 5126,
      "count": 118,
      "max": [
        0.10155314207077026,
        0.3895307779312134,
        0.4107210636138916
      ],
      "min": [
        -0.20288503170013428,
        -0.39145004749298096,
        -0.4104510545730591
      ],
      "type": "VEC3"
    },
    {
      "bufferView": 2,
      "componentType": 5126,
      "count": 118,
      "max": [
        0.9375,
        0.5675000548362732
      ],
      "min": [
        0.9374999403953552,
        0.5674999952316284
      ],
      "type": "VEC2"
    },
    {
      "bufferView": 3,
      "componentType": 5125,
      "count": 180,
      "max": [
        117
      ],
      "min": [
        0
      ],
      "type": "SCALAR"
    },
    {
      "bufferView": 4,
      "componentType": 5126,
      "count": 167,
      "max": [
        1,
        0.999993085861206,
        0.9961032867431641
      ],
      "min": [
        -1,
        -1,
        -0.9961033463478088
      ],
      "type": "VEC3"
    },
    {
      "bufferView": 5,
      "componentType": 5126,
      "count": 167,
      "max": [
        0.10155302286148071,
        0.3058520555496216,
        0.32273608446121216
      ],
      "min": [
        -0.20288503170013428,
        -0.30777132511138916,
        -0.32246607542037964
      ],
      "type": "VEC3"
    },
    {
      "bufferView": 6,
      "componentType": 5126,
      "count": 167,
      "max": [
        0.07282359898090363,
        0.19101962447166443
      ],
      "min": [
        0.0632401704788208,
        0.179916650056839
      ],
      "type": "VEC2"
    },
    {
      "bufferView": 7,
      "componentType": 5125,
      "count": 276,
      "max": [
        166
      ],
      "min": [
        0
      ],
      "type": "SCALAR"
    },
    {
      "bufferView": 8,
      "componentType": 5126,
      "count": 116,
      "max": [
        1,
        1,
        0.9510566592216492
      ],
      "min": [
        -1,
        -1,
        -0.9510565996170044
      ],
      "type": "VEC3"
    },
    {
      "bufferView": 9,
      "componentType": 5126,
      "count": 116,
      "max": [
        0.10155314207077026,
        0.3914508819580078,
        0.4107210636138916
      ],
      "min": [
        -0.20288503170013428,
        -0.3895301818847656,
        -0.4104510545730591
      ],
      "type": "VEC3"
    },
    {
      "bufferView": 10,
      "componentType": 5126,
      "count": 116,
      "max": [
        0.9375,
        0.5675000548362732
      ],
      "min": [
        0.9374999403953552,
        0.5674999952316284
      ],
      "type": "VEC2"
    },
    {
      "bufferView": 11,
      "componentType": 5125,
      "count": 180,
      "max": [
        115
      ],
      "min": [
        0
      ],
      "type": "SCALAR"
    },
    {
      "bufferView": 12,
      "componentType": 5126,
      "count": 171,
      "max": [
        1,
        1,
        0.996103048324585
      ],
      "min": [
        -1,
        -0.9999931454658508,
        -0.996103048324585
      ],
      "type": "VEC3"
    },
    {
      "bufferView": 13,
      "componentType": 5126,
      "count": 171,
      "max": [
        0.10155302286148071,
        0.307772159576416,
        0.32273608446121216
      ],
      "min": [
        -0.20288503170013428,
        -0.30585145950317383,
        -0.32246607542037964
      ],
      "type": "VEC3"
    },
    {
      "bufferView": 14,
      "componentType": 5126,
      "count": 171,
      "max": [
        0.07282359898090363,
        0.19101962447166443
      ],
      "min": [
        0.0632401704788208,
        0.179916650056839
      ],
      "type": "VEC2"
    },
    {
      "bufferView": 15,
      "componentType": 5125,
      "count": 276,
      "max": [
        170
      ],
      "min": [
        0
      ],
      "type": "SCALAR"
    },
    {
      "bufferView": 16,
      "componentType": 5126,
      "count": 120,
      "max": [
        1,
        1,
        0.9510566592216492
      ],
      "min": [
        -1,
        -1,
        -0.9510565996170044
      ],
      "type": "VEC3"
    },
    {
      "bufferView": 17,
      "componentType": 5126,
      "count": 120,
      "max": [
        0.20288503170013428,
        0.3914508819580078,
        0.4107210636138916
      ],
      "min": [
        -0.10155314207077026,
        -0.3895301818847656,
        -0.4104510545730591
      ],
      "type": "VEC3"
    },
    {
      "bufferView": 18,
      "componentType": 5126,
      "count": 120,
      "max": [
        0.9375,
        0.5675000548362732
      ],
      "min": [
        0.9374999403953552,
        0.5674999952316284
      ],
      "type": "VEC2"
    },
    {
      "bufferView": 19,
      "componentType": 5125,
      "count": 180,
      "max": [
        119
      ],
      "min": [
        0
      ],
      "type": "SCALAR"
    },
    {
      "bufferView": 20,
      "componentType": 5126,
      "count": 165,
      "max": [
        1,
        1,
        0.996103048324585
      ],
      "min": [
        -1,
        -0.9999931454658508,
        -0.996103048324585
      ],
      "type": "VEC3"
    },
    {
      "bufferView": 21,
      "componentType": 5126,
      "count": 165,
      "max": [
        0.20288503170013428,
        0.307772159576416,
        0.32273608446121216
      ],
      "min": [
        -0.10155302286148071,
        -0.30585145950317383,
        -0.32246607542037964
      ],
      "type": "VEC3"
    },
    {
      "bufferView": 22,
      "componentType": 5126,
      "count": 165,
      "max": [
        0.07282359898090363,
        0.19101962447166443
      ],
      "min": [
        0.0632401704788208,
        0.179916650056839
      ],
      "type": "VEC2"
    },
    {
      "bufferView": 23,
      "componentType": 5125,
      "count": 276,
      "max": [
        164
      ],
      "min": [
        0
      ],
      "type": "SCALAR"
    },
    {
      "bufferView": 24,
      "componentType": 5126,
      "count": 116,
      "max": [
        1,
        1,
        0.9510566592216492
      ],
      "min": [
        -1,
        -1,
        -0.9510565996170044
      ],
      "type": "VEC3"
    },
    {
      "bufferView": 25,
      "componentType": 5126,
      "count": 116,
      "max": [
        0.10155314207077026,
        0.3914508819580078,
        0.4107210636138916
      ],
      "min": [
        -0.20288503170013428,
        -0.3895301818847656,
        -0.4104510545730591
      ],
      "type": "VEC3"
    },
    {
      "bufferView": 26,
      "componentType": 5126,
      "count": 116,
      "max": [
        0.9375,
        0.5675000548362732
      ],
      "min": [
        0.9374999403953552,
        0.5674999952316284
      ],
      "type": "VEC2"
    },
    {
      "bufferView": 27,
      "componentType": 5125,
      "count": 180,
      "max": [
        115
      ],
      "min": [
        0
      ],
      "type": "SCALAR"
    },
    {
      "bufferView": 28,
      "componentType": 5126,
      "count": 171,
      "max": [
        1,
        1,
        0.996103048324585
      ],
      "min": [
        -1,
        -0.9999931454658508,
        -0.996103048324585
      ],
      "type": "VEC3"
    },
    {
      "bufferView": 29,
      "componentType": 5126,
      "count": 171,
      "max": [
        0.10155302286148071,
        0.307772159576416,
        0.32273608446121216
      ],
      "min": [
        -0.20288503170013428,
        -0.30585145950317383,
        -0.32246607542037964
      ],
      "type": "VEC3"
    },
    {
      "bufferView": 30,
      "componentType": 5126,
      "count": 171,
      "max": [
        0.07282359898090363,
        0.19101962447166443
      ],
      "min": [
        0.0632401704788208,
        0.179916650056839
      ],
      "type": "VEC2"
    },
    {
      "bufferView": 31,
      "componentType": 5125,
      "count": 276,
      "max": [
        170
      ],
      "min": [
        0
      ],
      "type": "SCALAR"
    },
    {
      "bufferView": 32,
      "componentType": 5126,
      "count": 120,
      "max": [
        1,
        1,
        0.9510566592216492
      ],
      "min": [
        -1,
        -1,
        -0.9510565996170044
      ],
      "type": "VEC3"
    },
    {
      "bufferView": 33,
      "componentType": 5126,
      "count": 120,
      "max": [
        0.20288503170013428,
        0.3914508819580078,
        0.4107210636138916
      ],
      "min": [
        -0.10155314207077026,
        -0.3895301818847656,
        -0.4104510545730591
      ],
      "type": "VEC3"
    },
    {
      "bufferView": 34,
      "componentType": 5126,
      "count": 120,
      "max": [
        0.9375,
        0.5675000548362732
      ],
      "min": [
        0.9374999403953552,
        0.5674999952316284
      ],
      "type": "VEC2"
    },
    {
      "bufferView": 35,
      "componentType": 5125,
      "count": 180,
      "max": [
        119
      ],
      "min": [
        0
      ],
      "type": "SCALAR"
    },
    {
      "bufferView": 36,
      "componentType": 5126,
      "count": 165,
      "max": [
        1,
        1,
        0.996103048324585
      ],
      "min": [
        -1,
        -0.9999931454658508,
        -0.996103048324585
      ],
      "type": "VEC3"
    },
    {
      "bufferView": 37,
      "componentType": 5126,
      "count": 165,
      "max": [
        0.20288503170013428,
        0.307772159576416,
        0.32273608446121216
      ],
      "min": [
        -0.10155302286148071,
        -0.30585145950317383,
        -0.32246607542037964
      ],
      "type": "VEC3"
    },
    {
      "bufferView": 38,
      "componentType": 5126,
      "count": 165,
      "max": [
        0.07282359898090363,
        0.19101962447166443
      ],
      "min": [
        0.0632401704788208,
        0.179916650056839
      ],
      "type": "VEC2"
    },
    {
      "bufferView": 39,
      "componentType": 5125,
      "count": 276,
      "max": [
        164
      ],
      "min": [
        0
      ],
      "type": "SCALAR"
    }
  ],
  "materials": [
    {
      "pbrMetallicRoughness": {
        "baseColorFactor": [
          0.000910581,
          0,
          0,
          1
        ],
        "metallicFactor": 0,
        "roughnessFactor": 1
      },
      "doubleSided": true,
      "name": "tires"
    },
    {
      "pbrMetallicRoughness": {
        "baseColorFactor": [
          0.658375,
          0.623961,
          0.791298,
          1
        ],
        "metallicFactor": 0,
        "roughnessFactor": 1
      },
      "doubleSided": true,
      "name": "wheels"
    }
  ],
  "meshes": [
    {
      "primitives": [
        {
          "mode": 4,
          "attributes": {
            "NORMAL": 0,
            "POSITION": 1,
            "TEXCOORD_0": 2
          },
          "indices": 3,
          "material": 0
        }
      ]
    },
    {
      "primitives": [
        {
          "mode": 4,
          "attributes": {
            "NORMAL": 4,
            "POSITION": 5,
            "TEXCOORD_0": 6
          },
          "indices": 7,
          "material": 1
        }
      ]
    },
    {
      "primitives": [
        {
          "mode": 4,
          "attributes": {
            "NORMAL": 8,
            "POSITION": 9,
            "TEXCOORD_0": 10
          },
          "indices": 11,
          "material": 0
        }
      ]
    },
    {
      "primitives": [
        {
          "mode": 4,
          "attributes": {
            "NORMAL": 12,
            "POSITION": 13,
            "TEXCOORD_0": 14
          },
          "indices": 15,
          "material": 1
        }
      ]
    },
    {
      "primitives": [
        {
          "mode": 4,
          "attributes": {
            "NORMAL": 16,
            "POSITION": 17,
            "TEXCOORD_0": 18
          },
          "indices": 19,
          "material": 0
        }
      ]
    },
    {
      "primitives": [
        {
          "mode": 4,
          "attributes": {
            "NORMAL": 20,
            "POSITION": 21,
            "TEXCOORD_0": 22
          },
          "indices": 23,
          "material": 1
        }
      ]
    },
    {
      "primitives": [
        {
          "mode": 4,
          "attributes": {
            "NORMAL": 24,
            "POSITION": 25,
            "TEXCOORD_0": 26
          },
          "indices": 27,
          "material": 0
        }
      ]
    },
    {
      "primitives": [
        {
          "mode": 4,
          "attributes": {
            "NORMAL": 28,
            "POSITION": 29,
            "TEXCOORD_0": 30
          },
          "indices": 31,
          "material": 1
        }
      ]
    },
    {
      "primitives": [
        {
          "mode": 4,
          "attributes": {
            "NORMAL": 32,
            "POSITION": 33,
            "TEXCOORD_0": 34
          },
          "indices": 35,
          "material": 0
        }
      ]
    },
    {
      "primitives": [
        {
          "mode": 4,
          "attributes": {
            "NORMAL": 36,
            "POSITION": 37,
            "TEXCOORD_0": 38
          },
          "indices": 39,
          "material": 1
        }
      ]
    }
  ]
}