<?xml version="1.0" standalone="no"?>
<!DOCTYPE svg PUBLIC "-//W3C//DTD SVG 1.1//EN" "http://www.w3.org/Graphics/SVG/1.1/DTD/svg11.dtd">
<svg t="1730427566226" class="icon" viewBox="0 0 1024 1024" version="1.1"
  xmlns="http://www.w3.org/2000/svg" p-id="4330" xmlns:xlink="http://www.w3.org/1999/xlink"
  width="256" height="256">
  <path
    d="M868.032 287.808a64 64 0 0 1 101.056 51.648l2.624 302.592a64 64 0 0 1-102.752 51.456l-206.912-157.536a64 64 0 0 1 1.728-103.104l204.256-145.056z"
    fill="#ffffff" p-id="4331"></path>
  <path
    d="M144 192h456.32a96 96 0 0 1 96 96v417.376a96 96 0 0 1-96 96H144a96 96 0 0 1-96-96V288a96 96 0 0 1 96-96z"
    fill="#ffffff" p-id="4332"></path>
</svg>