<?xml version="1.0" standalone="no"?>
<!DOCTYPE svg PUBLIC "-//W3C//DTD SVG 1.1//EN" "http://www.w3.org/Graphics/SVG/1.1/DTD/svg11.dtd">
<svg t="1726800430951" class="icon" viewBox="0 0 1024 1024" version="1.1"
  xmlns="http://www.w3.org/2000/svg" p-id="5584" xmlns:xlink="http://www.w3.org/1999/xlink"
  width="256" height="256">
  <defs>
    <mask id="5423">
      <rect x="12" y="12" width="1000" height="1000" rx="150" ry="150" fill="#FFF" />
      <path
        d="M529.148757 236.3392a32.802133 32.802133 0 0 1 65.288534 0v112.4608a184.4736 184.4736 0 0 1 80.546133 80.5632h111.880533a32.802133 32.802133 0 0 1 0 65.288533H652.745557a32.546133 32.546133 0 0 1-30.097066-21.9648 120.516267 120.516267 0 0 0-71.534934-71.534933 32.5888 32.5888 0 0 1-21.9648-30.72z"
        fill="#000"></path>
      <path
        d="M236.079957 429.3632h112.4608a186.026667 186.026667 0 0 1 80.5632-80.5632V236.3392a32.802133 32.802133 0 0 1 65.288534 0v134.647467a32.546133 32.546133 0 0 1-21.9648 30.097066 120.098133 120.098133 0 0 0-72.132267 71.534934 32.477867 32.477867 0 0 1-30.097067 21.9648H236.079957a32.759467 32.759467 0 0 1 0-65.220267"
        fill="#000"></path>
      <path
        d="M494.324224 787.652267a32.802133 32.802133 0 0 1-65.288533 0V675.242667a184.4736 184.4736 0 0 1-80.571734-80.5632H236.079957a32.802133 32.802133 0 0 1 0-65.297067h134.647467a32.554667 32.554667 0 0 1 30.097067 21.9648 120.482133 120.482133 0 0 0 71.534933 71.534933 32.597333 32.597333 0 0 1 21.9648 30.72V787.652267"
        fill="#000"></path>
      <path
        d="M511.783424 587.178667a75.2384 75.2384 0 1 1 53.111467-22.0416 75.093333 75.093333 0 0 1-53.111467 22.0416z"
        fill="#000"></path>
      <path
        d="M787.998891 594.705067H675.649024a186.026667 186.026667 0 0 1-80.597333 80.5376v111.889066a32.802133 32.802133 0 0 1-65.297067 0V653.0048a32.546133 32.546133 0 0 1 21.9648-30.088533 120.4992 120.4992 0 0 0 71.534933-71.543467 32.5888 32.5888 0 0 1 30.097067-21.9648h134.647467a32.802133 32.802133 0 0 1 0 65.297067z"
        fill="#000"></path>
    </mask>
  </defs>
  <rect width="1024" height="1024" x="0" y="0" fill="#FFFFFF"
    mask="url(#5423)"></rect>
</svg>